<svg width="166" height="273" viewBox="0 0 166 273" fill="none" xmlns="http://www.w3.org/2000/svg">

  <g id="leg-left" style="transform-origin: 120px 250px;">
    <path d="M148.33 260.39C148.06 257.48 130.44 254.25 128.72 253.91C127.04 253.34 124.7 252.8 123.49 251.41C123.46 251.38 123.43 251.35 123.4 251.31C123.36 251.26 123.31 251.22 123.28 251.17C123.28 251.17 123.29 251.17 123.3 251.16C123.14 250.93 123 250.69 122.91 250.42H105.11C105.32 250.82 105.44 251.26 105.41 251.71C105.35 252.63 105.48 253.54 105.56 254.46C105.6 254.87 105.52 255.25 105.37 255.6C105.39 255.65 105.42 255.7 105.44 255.75C105.16 256.45 104.97 256.94 104.96 257.9C104.92 261.08 106.48 265.59 106.91 268.46C107.34 271.33 107.99 271.48 110.31 272.25C112.48 271.92 114.99 271.66 117.08 271.38C118.15 271.23 118.69 270.89 119.41 270.35C120.14 269.81 120.74 269.11 121.39 268.63C122.52 267.81 123.09 267.48 124.58 267.36C130.01 266.94 136.43 266.24 141.69 265.64C143.71 265.41 144.05 264.97 145.52 264.16C145.74 264.04 146.03 263.77 146.13 263.69C147.31 262.69 148.23 261.94 148.32 260.39H148.33Z" fill="#293515"/>
    <path d="M131.29 246.23C131.47 247.26 130.05 249.38 121.21 143.63L101.15 251.35C104.28 254.38 131.29 246.23 131.29 246.23Z" fill="#293515"/>
  </g>

  <g id="leg-right" style="transform-origin: 50px 250px;">
    <path d="M47.92 267.06C47.25 263.84 44.87 261.31 41.76 260.24C37.85 258.91 34.48 256.82 30.98 254.68C29.87 254 28.72 251.84 28.8 251.81C28.26 251.16 27.87 246.75 28.06 245.44C28.13 244.95 28.28 244.49 28.47 244.04L9.59003 245.59C9.56003 246.21 9.35003 246.81 8.96003 247.3C9.02003 247.46 9.00003 247.61 8.87003 247.77C6.08003 251.01 3.28003 254.82 1.42003 258.62C0.870027 259.73 -0.499972 261.96 0.170028 262.79C2.42003 265.53 5.66003 265.78 8.75003 266.85C10.95 267.61 13.25 266.41 15.47 266.23C17.63 266.85 20.19 267.19 22.29 267.78C29.34 269.77 35.99 272.15 43.32 270.98C45.67 270.61 47.88 269.85 47.93 267.23L47.9 267.06H47.92Z" fill="#293515"/>
    <path d="M53.62 129.12C48.99 125.77 45.09 143.62 42.06 149.37C41.23 150.95 40.18 155.4 39.71 157.13C38.9 160.12 38.69 160.54 37.99 162.63C36.5 167.11 22.96 204.96 22.96 204.96C22.32 206.58 21.63 208.27 20.94 209.83C17.31 218.02 15.08 224.36 10 233.31C9.89003 233.5 2.84003 244.17 1.41003 245.58C1.48003 245.79 1.87003 246.03 2.31003 246.29C2.71003 246.58 3.14003 246.87 3.60003 247.15C3.91003 247.43 4.05003 247.73 3.80003 248.02C3.71003 248.12 3.63003 248.23 3.54003 248.33C3.55003 248.33 3.56003 248.33 3.57003 248.33C3.66003 248.23 3.74003 248.12 3.83003 248.03C3.96003 247.87 3.98003 247.72 3.92003 247.56C3.96003 247.51 3.99003 247.46 4.02003 247.41C12.99 252.58 31.66 255.48 31.66 255.48C31.66 255.48 34.95 254.32 37.54 251.83C42.12 247.41 54.02 225.29 57.83 213.38C60.58 204.8 67.18 186.28 71.66 176.25C72.33 173.76 80.63 153.67 77.15 145.17C74.34 138.32 55.86 130.77 53.61 129.14L53.62 129.12Z" fill="#293515"/>
  </g>

  <g id="head" style="transform-origin: center;">
    <path d="M67.12 45.12L59.49 39.35L66.4 17.88L91.23 14.27L97.76 28.9L100.19 34.12L98.93 36.92L95.69 36.83L91.19 44.75L79.21 48.24L67.12 45.12Z" fill="#293515"/>
    <path d="M114.39 15.79C109.88 15.06 105.34 14.48 100.76 14.48C100.16 14.48 99.55 14.49 98.95 14.51C98.66 14.52 98.17 14.63 97.9 14.66C96.6 11.69 95.83 8.12 93.28 5.84C85.2 -1.4 74.2 -2.18 65.44 5.05C62.24 7.7 59.87 13.95 58.69 18.00C58.69 18.00 56.73 24.92 57.62 27.14C57.69 27.34 57.76 27.52 57.86 27.71C56.66 28.39 56.27 30.00 56.53 31.28C56.79 32.57 57.63 33.03 58.61 33.75C58.9 34.96 59.27 36.21 59.43 37.46C59.49 37.87 59.52 38.28 59.52 38.69C59.52 38.91 59.51 39.13 59.49 39.35L63.51 41.10C63.68 40.28 64.01 39.53 64.31 38.76C64.51 38.26 64.69 37.75 64.8 37.22C65.86 36.88 67.22 36.61 68.22 36.28C69.21 35.94 69.97 35.68 70.64 34.93C71.32 34.18 72.55 34.30 73.06 34.66C73.1 34.69 73.12 34.70 73.15 34.73C73.17 34.74 73.19 34.75 73.23 34.78C73.58 35.02 74.1 35.23 74.63 35.14C74.8 35.11 75.09 35.07 75.28 35.04C75.04 34.82 74.88 34.79 74.61 34.53C72.61 32.57 70.99 29.40 73.11 27.01C73.45 26.63 74.05 26.60 74.49 26.62C74.92 26.64 75.22 26.85 75.54 27.07C75.85 27.30 75.98 27.68 76.3 27.91H76.35C80.22 26.97 81.29 23.22 82.16 19.75C82.27 19.32 82.19 19.14 82.12 18.74C85.94 18.37 89.7 18.26 93.52 18.73C94.33 18.83 95.12 18.94 95.92 19.03C96.49 20.13 96.63 21.26 96.63 22.39C96.63 24.17 96.28 25.97 96.63 27.78C97.04 29.86 99.84 32.17 99.05 34.25C97.94 37.16 95.22 34.70 93.7 37.00C92.39 38.97 91.91 42.40 90.09 43.96C89.49 44.48 88.85 44.84 88.18 45.10C85.79 46.04 83.12 45.69 80.94 46.94C80.16 47.39 79.63 47.79 79.2 48.24C81.19 48.59 83.25 48.69 85.31 48.41L88.82 47.05C89.63 46.69 90.32 46.29 90.92 45.82C93.28 44.05 94.32 41.51 95.69 38.61C96.62 36.62 99.76 38.54 100.63 36.64C102.18 33.23 99.53 31.08 98.82 28.19C98.03 24.92 99.55 22.21 97.91 19.24C102.31 19.56 106.36 19.53 110.79 19.04C112.84 18.81 116.81 18.62 114.38 15.79H114.39Z" fill="#FFFFFF"/>
    <path d="M43.9 141.44L46.03 122.63L48.4 98.37L46.87 97.26L46.62 83.58L60.23 42.48L59.9 40.08L60.47 40.03L63.39 40.69L71.49 50.72L74.93 57.41L82.79 49.36L86.61 51.81L90.42 124.68L93.96 128.09L95.17 131.15L94.78 134.61L93.41 138.43L43.9 141.44Z" fill="#293515"/>

    <rect x="44" y="137" width="55" height="5" transform="rotate(3 44 137)" fill="#FFFFFF"/>
    <rect x="75" y="136" width="7" height="7" transform="rotate(3 75 136)" stroke="#293515" stroke-width="1.5" fill="none"/>
  </g>

  <g id="hand-with-case" style="transform-origin: 90px 100px;">
    <path d="M129.66 127.98C129.33 127.43 128.87 127.04 128.39 126.68C127.9 126.33 127.39 126.01 126.92 125.66C124.67 124 122.68 123.23 121.12 122.63C120.34 122.33 119.67 122.07 119.12 121.76C118.57 121.46 118.14 121.13 117.77 120.67C117.58 120.42 117.49 120.26 117.41 120.06C117.3 119.76 117.22 119.3 117.08 118.45C116.94 117.61 116.72 116.41 116.27 114.61C114.88 109.03 111.31 99.5701 107.63 90.1701C107.04 88.6501 106.44 87.1401 105.85 85.6401C105.38 85.8001 104.9 85.9601 104.43 86.1201C105.02 87.6401 105.63 89.1801 106.23 90.7201C109.9 100.1 113.47 109.57 114.82 114.97C115.4 117.32 115.58 118.57 115.73 119.44C115.8 119.87 115.87 120.23 116.01 120.58C116.14 120.94 116.33 121.27 116.59 121.6C117.11 122.25 117.73 122.72 118.4 123.08C120.43 124.17 122.88 124.54 126.03 126.87C126.74 127.39 127.43 127.8 127.88 128.19C128.1 128.39 128.27 128.57 128.36 128.74C128.46 128.9 128.5 129.05 128.51 129.25C128.51 129.5 128.39 129.9 128.09 130.43C127.94 130.67 127.77 130.94 127.53 131.25C127.39 131.44 127.13 131.78 126.67 132.19C126.22 132.58 125.58 133.01 124.7 133.31C124.04 133.53 123.5 133.62 123.14 133.62C122.8 133.62 122.62 133.55 122.58 133.51C122.55 133.47 122.56 133.52 122.55 133.41C122.54 133.29 122.62 133 122.87 132.62C123.12 132.24 123.52 131.77 124.09 131.28L124.14 131.24L125.5 129.85C125.66 129.69 125.72 129.48 125.71 129.28C125.7 129.1 125.63 128.92 125.49 128.79C125.2 128.5 124.72 128.5 124.43 128.79L124.13 129.09C122.51 129.99 121.05 132.36 121.05 132.36C119.7 131.89 119.23 133.21 119.23 133.21C116.72 132.49 116.16 134.37 116.16 134.37C113.62 133.43 112.97 135.47 112.97 135.47C111.4 134.75 110.53 136.19 110.53 136.19C110.53 136.19 109.67 136.19 108.78 134.76C107.49 132.42 106.67 129.37 106.66 125.19C106.66 125.17 106.65 125.16 106.65 125.14C106.65 125.09 106.64 125.04 106.62 125C106.61 124.95 106.6 124.9 106.57 124.85C106.57 124.84 106.57 124.82 106.56 124.81C106.3 124.37 106.06 123.92 105.81 123.48C104.26 120.73 102.85 117.99 101.56 115.27C99.76 111.46 93.35 94.1101 91.86 90.3901C91.84 90.9701 90.29 91.1801 89.85 91.6201C91.22 95.0301 104.15 123.68 104.39 124.02C104.63 124.45 104.87 124.87 105.11 125.3C105.14 125.36 105.16 125.39 105.16 125.39L105.18 126.02C105.18 126.23 105.19 126.43 105.2 126.64C105.38 130.61 106.35 133.66 107.79 136.04C107.77 136.07 107.76 136.1 107.75 136.12C107.85 136.22 107.95 136.32 108.03 136.43C108.4 136.84 108.8 137.23 109.17 137.65C110.16 138.78 110.99 139.82 111.43 141.28C111.46 141.38 111.48 141.47 111.5 141.57C111.69 141.77 111.89 141.93 112.1 142.06C112.52 142.32 112.99 142.45 113.43 142.44C114.39 142.43 115.16 141.94 115.72 141.42C115.73 141.42 115.74 141.4 115.75 141.39C115.98 141.45 116.22 141.49 116.44 141.49C117.4 141.48 118.18 140.98 118.74 140.46C118.8 140.41 118.84 140.35 118.9 140.3C119.09 140.34 119.29 140.38 119.47 140.38C120.44 140.37 121.21 139.87 121.77 139.35C121.98 139.16 122.15 138.96 122.3 138.75C122.4 138.76 122.51 138.79 122.61 138.79C123.21 138.79 123.74 138.59 124.19 138.32C124.86 137.9 125.35 137.31 125.71 136.74C125.88 136.45 126.02 136.17 126.12 135.9C126.22 135.62 126.29 135.38 126.3 135.09C126.3 135.01 126.29 134.93 126.27 134.83C126.31 134.9 127.6 132.74 128.84 131.99C129.61 130.96 130 130.1 130.01 129.24C130.01 128.77 129.87 128.33 129.66 127.97V127.98ZM113.43 140.95C113.25 140.95 113.08 140.91 112.89 140.8C112.7 140.68 112.47 140.47 112.24 140.1H112.23C112.18 140.01 111.92 139.58 111.69 139.04C111.45 138.51 111.24 137.85 111.25 137.43C111.25 137.24 111.28 137.11 111.32 137.03C111.36 136.95 111.4 136.91 111.51 136.85H111.52L111.53 136.84C111.55 136.83 111.71 136.75 111.92 136.67C112.13 136.6 112.38 136.54 112.55 136.54H112.69L112.72 136.57C112.73 136.58 112.77 136.64 112.78 136.81C112.79 136.84 112.8 136.85 112.8 136.87C112.89 137.57 113.14 138.23 113.38 138.78C113.68 139.44 113.97 139.92 113.98 139.94H113.99C114.13 140.17 114.29 140.36 114.45 140.54C114.11 140.8 113.73 140.96 113.43 140.95ZM116.44 140C116.26 140 116.1 139.96 115.9 139.84C115.71 139.72 115.49 139.51 115.25 139.15C115.2 139.06 114.94 138.61 114.7 138.05C114.46 137.5 114.25 136.82 114.26 136.38C114.26 136.19 114.29 136.05 114.33 135.97C114.37 135.89 114.41 135.85 114.5 135.8C114.62 135.76 115.01 135.64 115.34 135.65C115.51 135.65 115.66 135.68 115.71 135.72C115.77 135.76 115.78 135.75 115.83 135.88C115.83 135.9 115.84 135.91 115.85 135.92C115.95 136.58 116.19 137.2 116.42 137.71C116.72 138.36 117.01 138.82 117.02 138.84C117.19 139.1 117.36 139.32 117.55 139.52C117.19 139.81 116.77 140 116.44 140ZM120.6 138.4C120.24 138.7 119.81 138.89 119.47 138.89C119.3 138.88 119.13 138.85 118.94 138.73C118.74 138.61 118.52 138.4 118.29 138.03H118.28C118.23 137.94 117.97 137.51 117.73 136.98C117.49 136.44 117.29 135.79 117.3 135.36C117.3 135.17 117.33 135.04 117.37 134.97C117.41 134.89 117.45 134.84 117.55 134.78C117.61 134.76 117.77 134.69 117.98 134.63C118.21 134.56 118.5 134.5 118.68 134.5H118.72C118.75 134.8 118.8 135.1 118.89 135.37C119.03 135.82 119.22 136.24 119.43 136.61C119.67 137.03 119.92 137.37 120.18 137.64C120.39 137.85 120.61 138.03 120.83 138.18C120.76 138.26 120.68 138.33 120.6 138.4ZM123.75 136.79C123.38 137.12 122.99 137.3 122.61 137.3C122.26 137.3 121.82 137.16 121.25 136.58C121.12 136.46 120.91 136.19 120.73 135.86C120.57 135.58 120.42 135.25 120.32 134.93C120.24 134.67 120.2 134.42 120.2 134.22C120.2 134.01 120.24 133.86 120.3 133.75C120.36 133.64 120.44 133.55 120.62 133.45C120.76 133.38 120.87 133.33 120.97 133.3C120.97 133.39 120.98 133.49 121.02 133.65C121.17 134.22 121.4 134.78 121.88 135.21C122.11 135.42 122.41 135.58 122.73 135.68C123.05 135.78 123.4 135.83 123.79 135.83C124.02 135.83 124.26 135.81 124.52 135.78C124.34 136.12 124.07 136.5 123.75 136.79Z" fill="#FFFFFF"/>

    <g id="club">
       <path d="M80.55 89.1101C80.75 88.9101 80.99 88.7601 81.25 88.6701L51.14 27.1001L44.29 13.1101L40.72 11.7201C38.31 11.1801 37.73 12.7301 36.11 13.7701C32.59 16.0501 30.03 17.2401 25.75 16.0401C25.28 15.9001 23.14 14.8801 22.86 14.6001C22.53 14.2801 21.5 12.0801 21.47 11.5901C21.32 9.35009 25.57 7.14009 27.42 6.60009C32.02 5.27009 40.6 6.45009 44.43 9.28009C46.92 11.1101 47.34 12.3601 48.75 15.4201C49.62 17.2701 52.47 23.1701 56.31 31.0901C64.35 47.6501 76.71 73.0301 84.28 88.6201C84.75 88.5301 85.23 88.4401 85.7 88.3301C85.76 88.3201 85.82 88.3001 85.88 88.2901L63.62 41.6101L63.07 40.4701L50.62 14.8001C48.32 10.1601 47.37 7.83009 42.08 5.93009C36.01 3.74009 20.9 2.13009 20.14 11.5201C19.98 13.5101 21.4 20.1301 33.51 17.4701C35.6 17.0101 37.06 14.8401 38.71 14.0301C40.56 13.1101 41.64 14.2101 43.04 15.3001L58.1 45.9701L79.32 89.2101C79.73 89.1901 80.14 89.1601 80.55 89.1301V89.1101Z" fill="#FFFFFF" stroke="#293515" stroke-width="2"/>
    </g>

    <path d="M164.91 170.36L149.87 136.14C149.07 134.33 145.41 133.23 143.69 133.55L130.31 138.59C130.31 138.59 130.3 138.55 130.29 138.53L129.74 138.73C129.74 138.73 129.5 138.18 129.21 137.48L127.83 134.21C127.71 133.92 127.55 133.62 127.37 133.32C127.11 133.38 126.85 133.46 126.6 133.54C126.46 133.58 126.32 133.62 126.17 133.65C125.87 133.71 125.55 133.75 125.24 133.76C125.05 133.88 124.83 133.98 124.57 134.03C124.38 134.08 124.18 134.12 123.95 134.12C121.54 134.12 121.26 130.84 123.08 130.04C123.12 130 123.15 129.96 123.19 129.93C122.67 129.76 122.11 129.63 121.49 129.58C121.45 129.58 119.99 129.65 119.34 129.9L108.3 134.18C107.64 134.42 106.48 135.31 106.45 135.34C103.87 137.9 104.02 141 104.63 142.96L105.7 146.35C105.93 147.07 106.1 147.64 106.1 147.64L91.5901 152.98C91.0201 153.18 90.5101 153.49 90.0801 153.86C88.6501 155.08 88.0201 157.08 88.5901 158.97L99.4701 194.73C99.6701 195.4 100.01 195.99 100.44 196.48C101.72 197.97 103.86 198.61 105.84 197.87L114 194.83H114.01L114.03 194.81L153.94 179.89H153.97C153.97 179.89 153.97 179.88 153.98 179.88L162.15 176.87C164.13 176.14 165.34 174.27 165.34 172.3C165.34 171.65 165.21 170.98 164.93 170.34L164.91 170.36Z" fill="#FFFFFF" stroke="#293515" stroke-width="2"/>

    <path d="M154.05 178.27L136.3 137.94L138.9 136.95L156.64 177.31L154.05 178.27Z" fill="#293515"/>
    <path d="M161.62 175.48L158.05 176.79L140.29 136.43L144.22 134.95C146.71 134.73 148.49 136.75 163.54 170.97C163.82 172.32 161.62 175.48 161.62 175.48Z" fill="#293515"/>

    <path d="M104.45 127.44L98.27 115.32V115.34C97.92 114.67 97.59 114.03 97.29 113.45C96.71 112.34 96.23 111.42 95.92 110.82C95.89 110.76 95.86 110.7 95.83 110.65C95.78 110.55 95.74 110.47 95.7 110.39C95.66 110.32 95.64 110.27 95.61 110.22H92.19C91.77 110.4 91.12 110.67 90.32 110.96C91 111.33 91.21 112.02 91.09 112.68L93.45 117.99L98.39 129.13L99 130.4C99.46 131.35 100.62 131.72 101.54 131.2L103.67 130C104.58 129.49 104.92 128.35 104.45 127.42V127.44Z" fill="#293515"/>

    <path d="M105.65 85.8301L89.95 91.6201L94.95 100.24L98.57 109.74L105.66 124.5L106.39 130.06L108.23 134.84L109.12 137.52L109.96 136.62L111.75 140.93L114.27 141.67L124.3 137.36L128.39 131.48L129.55 128.54L124.82 125.02L117.63 121.66L116.05 117.99L112.8 104.76L105.65 85.8301Z" fill="#293515"/>
  </g>
</svg>
