<svg viewBox="0 0 366 156" xmlns="http://www.w3.org/2000/svg" fill="currentColor" class="hero-content-header__logo-svg" style="fill: rgb(18, 18, 18) !important;"><path d="M35.045 148.094c-10.547-5.156-19.025-12.561-25.432-22.223C3.203 116.209 0 105.055 0 92.405c0-13.114 3.085-24.62 9.263-34.518 6.175-9.896 14.535-17.508 25.082-22.839 10.545-5.328 22.225-7.994 35.044-7.994 10.487 0 19.953 2.052 28.402 6.15 8.448 4.1 15.09 9.955 19.926 17.568 4.833 7.613 7.254 16.398 7.254 26.35 0 10.425-2.421 19.91-7.254 28.46-4.836 8.549-11.536 15.282-20.1 20.2-8.564 4.921-18.09 7.38-28.577 7.38-8.04 0-15.294-1.64-21.76-4.918-6.468-3.279-11.597-7.875-15.382-13.791-3.788-5.912-5.799-12.676-6.03-20.292-.235-6.79 1.223-13.202 4.37-19.235 3.145-6.031 7.253-10.892 12.321-14.58 5.07-3.691 10.166-5.535 15.295-5.535 5.357 0 8.04 1.932 8.04 5.797 0 2.109-.73 3.838-2.185 5.182-1.46 1.349-3.294 2.02-5.506 2.02-8.39 0-15.294 2.61-20.712 7.818-5.418 5.214-8.188 11.919-8.302 20.115 0 6.443 1.66 12.328 4.98 17.656 3.322 5.33 8.04 9.545 14.158 12.648 6.117 3.104 13.022 4.655 20.713 4.655 10.137 0 19.253-2.342 27.354-7.026 8.097-4.685 14.476-11.125 19.138-19.324 4.66-8.197 6.991-17.275 6.991-27.23 0-9.369-2.302-17.682-6.903-24.947-4.605-7.26-10.924-12.85-18.964-16.777-8.04-3.922-17.19-5.885-27.442-5.885-12.584 0-23.945 2.609-34.083 7.818-10.137 5.213-18.12 12.561-23.945 22.047-5.829 9.488-8.74 20.38-8.74 32.677 0 12.063 2.972 22.721 8.914 31.971 5.943 9.254 13.721 16.307 23.335 21.168 9.613 4.858 19.603 7.055 29.975 6.588 12.35 0 23.449-3.486 33.296-10.453 9.846-6.965 18.41-15.547 25.694-25.736 7.28-10.188 15.875-23.83 25.781-40.93 8.853-14.759 16.225-26.527 22.11-35.312 5.883-8.783 12.322-16.396 19.314-22.836 5.942-5.504 12.847-9.633 20.711-12.386C219.442 1.377 227.569 0 235.958 0c6.526 0 11.827.822 15.906 2.459 4.078 1.642 6.118 4.394 6.118 8.258 0 2.46-.934 4.628-2.796 6.5-1.866 1.874-5.274 3.425-10.226 4.654-4.954 1.23-11.798 1.844-20.538 1.844-11.535 0-21.877-.817-31.023-2.459-9.15-1.637-19.432-3.979-30.85-7.026-7.575-1.99-13.546-3.396-17.915-4.215-4.371-.82-8.595-1.23-12.673-1.23-8.157 0-16.342 1.668-24.556 5.007-8.216 3.338-15.062 8.315-20.538 14.932-5.478 6.617-8.215 14.668-8.215 24.154 0 6.209 1.311 11.568 3.933 16.073 2.622 4.51 6.145 7.88 10.575 10.103 4.427 2.226 9.263 3.338 14.507 3.338 6.292 0 11.768-1.2 16.43-3.602 4.658-2.4 8.154-5.767 10.487-10.1 2.329-4.332 3.495-9.25 3.495-14.757 0-3.279-.437-5.826-1.311-7.644-.873-1.813-2.069-3.6-3.583-5.356-1.048-1.17-1.808-2.135-2.272-2.9-.467-.76-.698-1.668-.698-2.723 0-1.756.638-3.248 1.922-4.48 1.28-1.23 2.853-1.844 4.719-1.844 2.796 0 5.156 1.26 7.079 3.777 1.922 2.52 2.884 6.414 2.884 11.682 0 7.146-1.691 13.822-5.069 20.027-3.382 6.21-8.071 11.156-14.071 14.845-6.003 3.69-12.732 5.535-20.187 5.535-5.828 0-11.099-1.29-15.819-3.865-4.718-2.576-8.476-6.295-11.272-11.156-2.798-4.859-4.195-10.568-4.195-17.127 0-10.191 3.29-19.062 9.875-26.615 6.582-7.556 15.583-13.353 27.004-17.391 11.418-4.041 24.178-6.062 38.278-6.062 10.487 0 20.1.939 28.84 2.811 8.739 1.876 18.585 4.509 29.538 7.904 6.524 2.109 11.913 3.69 16.168 4.744 4.252 1.055 8.185 1.582 11.798 1.582 7.106 0 11.856-.849 14.246-2.547 2.386-1.697 3.582-3.953 3.582-6.765 0-2.573-1.691-4.568-5.069-5.973-3.381-1.404-7.864-2.107-13.458-2.107-8.74 0-16.897 1.318-24.47 3.953-7.576 2.633-14.158 6.53-19.75 11.68-7.227 6.796-13.519 15.197-18.877 25.21-5.361 10.014-11.478 23.22-18.352 39.615-5.829 13.82-10.838 24.742-15.033 32.762-4.195 8.025-8.799 14.553-13.808 19.588-6.991 7.027-15.615 12.238-25.868 15.636-10.255 3.395-20.86 5.094-31.81 5.094-12.12 0-23.452-2.578-33.996-7.73v.001ZM174.523 95.92c-1.922-4.332-2.884-9.019-2.884-14.056 0-5.62 1.224-10.479 3.67-14.58 2.448-4.098 5.563-7.229 9.351-9.397 3.785-2.166 7.544-3.25 11.274-3.25 2.911 0 5.301.586 7.166 1.756 1.863 1.172 2.797 2.928 2.797 5.27 0 2.81-1.399 5.3-4.195 7.466-2.796 2.168-6.934 3.25-12.409 3.25-4.545 0-8.74-.641-12.585-1.933-3.845-1.286-8.8-3.395-14.857-6.324-7.576-3.748-14.449-6.557-20.625-8.432-6.177-1.873-13.343-2.812-21.499-2.812-9.904 0-18.439 1.525-25.605 4.568-7.167 3.048-12.615 7.203-16.343 12.474-3.73 5.27-5.593 11.184-5.593 17.741 0 3.634.726 6.474 2.184 8.521 1.456 2.052 3.148 3.514 5.07 4.391 1.923.88 4.457 1.671 7.603 2.374 3.146.703 5.445 1.465 6.903 2.282 1.456.822 2.186 2.228 2.186 4.218 0 1.875-.612 3.455-1.836 4.741-1.223 1.292-3.233 1.933-6.03 1.933-2.68 0-5.478-.789-8.39-2.371-2.913-1.582-5.39-4.244-7.428-7.994-2.04-3.746-3.058-8.606-3.058-14.58 0-13.35 4.63-23.48 13.895-30.392 9.264-6.91 21.411-10.365 36.442-10.365 8.622 0 16.051.968 22.286 2.9 6.232 1.933 13.253 4.773 21.061 8.518 5.359 2.812 9.99 4.864 13.896 6.15 3.902 1.29 8.067 1.933 12.496 1.933 4.895 0 8.447-.818 10.663-2.46 2.211-1.639 3.321-3.454 3.321-5.446 0-1.756-.642-3.043-1.923-3.865-1.283-.817-3.089-1.23-5.419-1.23-3.146 0-6.321.82-9.525 2.46-3.207 1.641-5.856 3.952-7.953 6.938-2.098 2.988-3.146 6.355-3.146 10.103 0 3.047.669 5.418 2.009 7.115 1.339 1.699 3.292 3.426 5.856 5.182 1.981 1.172 3.466 2.313 4.457 3.424.988 1.115 1.486 2.55 1.486 4.305 0 1.756-.555 3.193-1.661 4.304-1.109 1.115-2.594 1.67-4.456 1.67-3.846 0-6.73-2.166-8.652-6.5Zm1.747 57.883c-3.905-1.465-6.729-3.281-8.476-5.447-1.748-2.168-2.622-4.363-2.622-6.586 0-1.758.551-3.28 1.661-4.567 1.106-1.289 2.648-1.933 4.631-1.933 1.281 0 2.36.351 3.233 1.053.874.703 2.011 1.816 3.408 3.339 2.448 2.926 5.097 5.239 7.954 6.938 2.853 1.697 7.368 2.547 13.546 2.547 7.223 0 14.271-1.434 21.149-4.303 6.873-2.871 13.808-8.02 20.799-15.459 6.991-7.437 13.515-17.77 19.576-31.006l2.098 1.23c-6.76 14.172-13.956 25.385-21.586 33.641-7.634 8.256-15.586 14.11-23.859 17.568-8.275 3.452-17.188 5.182-26.742 5.182-5.942 0-10.866-.734-14.769-2.197h-.001Zm13.372-29.777c0-4.448.989-9.426 2.971-14.932 1.98-5.504 4.077-10.365 6.293-14.58 2.446-4.451 5.475-9.69 9.088-15.724 3.61-6.03 6.757-10.98 9.438-14.844 3.961.47 7.136.381 9.526-.262 2.387-.643 4.515-2.02 6.38-4.13h1.748c-7.926 12.184-15.092 23.952-21.499 35.31l-1.573 2.812c-3.146 6.09-5.593 11.391-7.341 15.897-1.748 4.511-2.565 8.58-2.447 12.209-.118 2.228.29 3.808 1.224 4.744.931.939 2.503 1.406 4.719 1.406 4.659 0 9.089-1.375 13.284-4.129 4.194-2.75 7.573-6.148 10.137-10.189 2.562-4.041 3.96-7.582 4.195-10.627 0-1.758-.293-3.867-.874-6.326a506.088 506.088 0 0 0-.699-3.424c-.235-1.113-.293-2.137-.176-3.076.115-1.637.67-3.043 1.661-4.215.989-1.17 2.534-1.64 4.632-1.406 2.562.236 4.369 1.406 5.418 3.515a12.03 12.03 0 0 1 1.224 6.674c-.35 4.568-2.622 9.75-6.817 15.547-4.195 5.797-9.731 10.746-16.604 14.845-6.876 4.1-14.218 6.149-22.023 6.149-7.926 0-11.885-3.748-11.885-11.244Zm40.899-75.804c-1.747-1.694-2.622-3.95-2.622-6.762 0-2.812.875-5.063 2.622-6.764 1.748-1.695 3.96-2.548 6.643-2.548 2.796 0 5.037.853 6.729 2.547 1.688 1.702 2.534 3.953 2.534 6.765s-.846 5.068-2.534 6.762c-1.692 1.702-3.933 2.55-6.729 2.55-2.683 0-4.895-.849-6.643-2.55ZM287.522 143c-9.439-6.207-17.015-15.724-22.722-28.548-5.711-12.824-8.565-28.662-8.565-47.518 0-4.451.232-9.81.699-16.077.465-6.261 1.106-11.68 1.923-16.247 7.34-.937 11.885-3.691 13.633-8.259h1.747c-2.446 9.255-4.312 19.033-5.592 29.338-1.284 10.308-1.923 19.09-1.923 26.35-.117 15.813 2.359 28.784 7.429 38.913 5.068 10.131 11.563 17.48 19.488 22.047 7.923 4.568 16.37 6.85 25.344 6.85 8.389 0 15.963-1.875 22.721-5.62 6.757-3.751 12.088-8.931 15.994-15.548 3.902-6.614 5.854-13.965 5.854-22.047 0-6.557-1.34-12.266-4.019-17.127-2.683-4.858-6.497-8.549-11.449-11.067-4.954-2.519-10.692-3.777-17.216-3.777-8.39 0-14.83 1.992-19.314 5.971-4.486 3.984-6.729 9.781-6.729 17.391 0 2.578.349 5.39 1.049 8.433.115.822.232 1.582.349 2.285.114.703.175 1.406.175 2.109 0 2.106-.585 3.748-1.748 4.918-1.166 1.172-2.739 1.756-4.719 1.756-4.662 0-6.992-3.572-6.992-10.715 0-6.441 1.688-12.298 5.069-17.568 3.378-5.271 8.01-9.426 13.896-12.474 5.882-3.043 12.379-4.568 19.488-4.568 10.138 0 18.44 3.048 24.907 9.136C362.766 87.429 366 95.919 366 106.81c0 8.433-2.01 16.134-6.031 23.101-4.02 6.969-9.672 12.442-16.954 16.426-7.284 3.979-15.469 5.971-24.557 5.971-11.187 0-21.498-3.104-30.937-9.309l.001.001ZM300.98 35.751c12.235-12.588 25.458-18.885 39.676-18.885 7.455 0 13.254 1.203 17.391 3.6 4.135 2.402 6.205 5.244 6.205 8.52 0 1.759-.555 3.281-1.661 4.568-1.108 1.292-2.594 1.933-4.457 1.933-1.398 0-2.594-.322-3.583-.965-.991-.644-2.185-1.67-3.583-3.076-2.914-2.46-5.653-4.36-8.215-5.71-2.564-1.343-6.117-2.02-10.662-2.02-10.836 0-21.733 5.86-32.684 17.568-10.954 11.714-22.433 29.75-34.433 54.107l-2.272-.877c13.284-26.584 26.043-46.172 38.278-58.763Z" style="fill: rgb(18, 18, 18) !important;"/></svg>